<svg width="157" height="301" viewBox="0 0 157 301" fill="none" xmlns="http://www.w3.org/2000/svg">
<rect width="157" height="301" rx="20" fill="#4B6A69"/>
<path d="M62.6566 154.125H38.2818C37.1589 154.125 36.2504 155.033 36.2504 156.156V234C36.2504 235.123 37.1589 236.031 38.2818 236.031C39.4042 236.031 40.3128 235.123 40.3128 234V168.344C40.3128 162.735 44.8598 158.188 50.469 158.188V158.188C56.0781 158.188 60.6252 162.735 60.6252 168.344V209.5C60.6252 210.623 61.5338 211.531 62.6566 211.531C63.7795 211.531 64.6876 210.623 64.6876 209.5V156.156C64.6876 155.033 63.7795 154.125 62.6566 154.125Z" fill="white"/>
<path d="M95.1568 154.125H119.532C120.654 154.125 121.563 155.033 121.563 156.156L122.462 205.431C122.483 206.568 121.568 207.5 120.431 207.5C119.324 207.5 118.421 206.614 118.4 205.507L117.691 168.246C117.585 162.66 113.027 158.188 107.441 158.188C101.778 158.188 97.1878 162.778 97.1878 168.44V216C97.1878 217.123 96.2792 218.031 95.1568 218.031C94.0339 218.031 93.1254 217.123 93.1254 216V156.156C93.1254 155.033 94.0339 154.125 95.1568 154.125Z" fill="#F2F2F2"/>
<path d="M42.3441 117.562C41.2212 117.562 40.3127 118.471 40.3127 119.594V148.031C40.3127 149.154 41.2212 150.062 42.3441 150.062C43.467 150.062 44.3751 149.154 44.3751 148.031V119.594C44.3751 118.471 43.467 117.562 42.3441 117.562Z" fill="white"/>
<path d="M58.5942 117.562H42.3441C41.2212 117.562 40.3127 118.471 40.3127 119.594C40.3127 120.717 41.2212 121.625 42.3441 121.625H58.5942C59.7166 121.625 60.6251 120.717 60.6251 119.594C60.6251 118.471 59.7166 117.562 58.5942 117.562Z" fill="white"/>
<path d="M58.5942 117.562C57.4713 117.562 56.5627 118.471 56.5627 119.594V148.031C56.5627 149.154 57.4713 150.062 58.5942 150.062C59.7166 150.062 60.6251 149.154 60.6251 148.031V119.594C60.6251 118.471 59.7166 117.562 58.5942 117.562Z" fill="white"/>
<path d="M99.2191 117.562C98.0962 117.562 97.1877 118.471 97.1877 119.594V148.031C97.1877 149.154 98.0962 150.062 99.2191 150.062C100.342 150.062 101.25 149.154 101.25 148.031V119.594C101.25 118.471 100.342 117.562 99.2191 117.562Z" fill="white"/>
<path d="M115.469 117.562H99.2191C98.0962 117.562 97.1877 118.471 97.1877 119.594C97.1877 120.717 98.0962 121.625 99.2191 121.625H115.469C116.592 121.625 117.5 120.717 117.5 119.594C117.5 118.471 116.592 117.562 115.469 117.562Z" fill="white"/>
<path d="M115.469 117.562C114.346 117.562 113.438 118.471 113.438 119.594V148.031C113.438 149.154 114.346 150.062 115.469 150.062C116.592 150.062 117.5 149.154 117.5 148.031V119.594C117.5 118.471 116.592 117.562 115.469 117.562Z" fill="white"/>
<path d="M79.0309 118C77.9086 118 77 118.482 77 119.077V200.923C77 201.518 77.9086 202 79.0309 202C80.1538 202 81.0624 201.518 81.0624 200.923V119.077C81.0624 118.482 80.1538 118 79.0309 118Z" fill="white"/>
<path d="M91.0938 117.562H66.719C65.5961 117.562 64.6876 118.471 64.6876 119.594C64.6876 120.717 65.5961 121.625 66.719 121.625H91.0938C92.2167 121.625 93.1253 120.717 93.1253 119.594C93.1253 118.471 92.2167 117.562 91.0938 117.562Z" fill="white"/>
<path d="M50.4689 89.1245C49.346 89.1245 48.438 90.0331 48.438 91.156V111.468C48.438 112.591 49.346 113.5 50.4689 113.5C51.5918 113.5 52.5004 112.591 52.5004 111.468V91.156C52.5004 90.0331 51.5918 89.1245 50.4689 89.1245Z" fill="white"/>
<path d="M107.344 89.1245C106.221 89.1245 105.313 90.0331 105.313 91.156V111.468C105.313 112.591 106.221 113.5 107.344 113.5C108.467 113.5 109.375 112.591 109.375 111.468V91.156C109.375 90.0331 108.467 89.1245 107.344 89.1245Z" fill="white"/>
<path d="M108.253 89.3388C107.904 89.1641 99.4645 85.0621 78.9067 85.0621C58.3505 85.0621 49.9098 89.1641 49.5604 89.3388C48.5569 89.8406 48.1506 91.0605 48.6523 92.0645C49.1556 93.0686 50.3755 93.4693 51.3775 92.9731C51.4547 92.9335 59.3002 89.1245 78.9067 89.1245C98.3304 89.1245 106.368 92.9396 106.435 92.9731C106.725 93.1179 107.035 93.1874 107.344 93.1874C108.09 93.1874 108.804 92.7771 109.161 92.0645C109.66 91.061 109.257 89.8406 108.253 89.3388Z" fill="white"/>
<path d="M99.2191 97.2503H58.5942C57.4713 97.2503 56.5627 98.1589 56.5627 99.2813C56.5627 100.404 57.4713 101.313 58.5942 101.313H99.2191C100.341 101.313 101.25 100.404 101.25 99.2813C101.25 98.1589 100.341 97.2503 99.2191 97.2503Z" fill="white"/>
<path d="M76.9666 40.3769C75.9686 40.2956 74.8976 41.1925 74.8458 42.3149L72.8148 87.058C72.763 88.1789 73.632 89.1266 74.7523 89.1784C74.7823 89.1804 74.8143 89.1804 74.8458 89.1804C75.925 89.1804 76.8234 88.3318 76.8732 87.2404L78.9046 42.4972C78.9564 41.3769 78.0875 40.4287 76.9666 40.3769Z" fill="white"/>
<path d="M80.9376 40.3748H76.8752C75.7523 40.3748 74.8438 41.2834 74.8438 42.4063C74.8438 43.5292 75.7523 44.4377 76.8752 44.4377H80.9376C82.0605 44.4377 82.969 43.5292 82.969 42.4063C82.969 41.2834 82.0605 40.3748 80.9376 40.3748Z" fill="white"/>
<path d="M82.967 42.3154C82.9152 41.1945 81.8579 40.2839 80.8462 40.3774C79.7253 40.4287 78.8569 41.3769 78.9087 42.4977L80.9315 87.2409C80.9808 88.3297 81.8797 89.1804 82.9589 89.1804C82.9909 89.1804 83.0224 89.1804 83.0523 89.1789C84.1732 89.1271 85.0416 88.1794 84.9898 87.0586L82.967 42.3154Z" fill="white"/>
<path d="M78.9067 16C77.7838 16 76.8752 16.9086 76.8752 18.0309V42.4063C76.8752 43.5292 77.7838 44.4377 78.9067 44.4377C80.0291 44.4377 80.9376 43.5287 80.9376 42.4063V18.0309C80.9376 16.9086 80.0291 16 78.9067 16Z" fill="white"/>
<path d="M124.626 236.118C124.604 236.079 122.343 232.211 121.665 228.739C120.88 224.718 117.619 223.378 116.31 222.998L115.417 219.427V216.471C115.417 215.658 114.759 215 113.947 215C113.135 215 112.476 215.658 112.476 216.471V219.13C110.285 222.095 106.557 225.981 104.534 225.981C101.669 225.981 99.9079 225.02 97.8692 223.906C95.6111 222.673 93.0515 221.275 88.8467 221.275C87.6494 221.275 86.1725 221.484 84.4624 221.726C80.2702 222.319 74.5287 223.132 68.8978 221.344C61.6628 219.048 54.0004 220.544 51.565 221.131C50.3699 220.205 47.6115 218.461 43.4656 218.142C42.4089 218.061 41.3273 217.863 40.2812 217.673C39.0044 217.44 37.9035 217.238 36.9519 217.26C34.7356 217.309 34.1989 218.703 34.0708 219.3C33.8014 220.558 34.3103 222.137 35.4321 223.525C36.588 224.955 39.3583 227.354 44.9215 227.354C46.1183 227.354 46.4661 228.411 46.565 228.954C45.8695 232.176 45.7413 240.227 49.441 246.277C45.8812 251.626 42.4457 254.531 42.4109 254.56C42.1506 254.776 41.9734 255.077 41.9087 255.409C41.1341 259.393 40.5551 265.452 40.3754 267.457L37.2864 269.774C36.2522 270.55 35.7888 271.817 36.0773 273.081C36.3624 274.33 37.3171 275.26 38.5691 275.507C39.3828 275.668 40.165 275.747 40.9113 275.747C43.8455 275.747 46.219 274.519 47.7269 272.173C48.5352 270.915 49.5345 266.702 50.2411 263.332L57.6758 273.217C57.6856 273.23 57.6957 273.242 57.7057 273.255C59.1032 274.99 61.1826 275.986 63.4106 275.986H68.4523C69.2645 275.986 69.923 275.327 69.923 274.515V272.946C69.923 269.636 65.5138 268.686 63.569 268.428L57.4919 256.913C60.6889 255.081 63.1611 252.975 64.8899 250.605C67.6796 251.235 70.9851 251.452 74.0164 251.452C76.463 251.452 78.727 251.311 80.3956 251.133C79.4724 255.623 80.5739 260.039 81.1448 262.322C81.5656 264.006 80.8288 265.879 80.2368 267.384C79.8987 268.244 79.6071 268.986 79.5393 269.662C79.4857 270.197 79.323 271.825 84.8635 275.718C85.1111 275.892 85.4063 275.986 85.709 275.986H90.4153C91.0678 275.986 91.642 275.556 91.8262 274.93C91.8656 274.796 92.2017 273.578 91.8892 272.005C91.6264 270.682 90.8505 268.861 88.6874 267.387C88.928 265.744 90.2164 261.269 91.7542 256.425C96.943 258.301 102.402 260.392 104.233 261.267C104.243 263.076 105.145 265.119 106.509 266.205C107.247 266.793 108.087 267.092 108.945 267.092C109.516 267.092 110.095 266.959 110.657 266.692C112.167 265.973 113.433 263.916 113.735 261.69C114.036 259.473 113.339 257.504 111.773 256.147C111.371 255.799 110.015 254.817 107.654 253.111C105.212 251.347 101.368 248.571 99.922 247.385C101.305 246.179 102.744 244.74 104.106 243.054C105.011 243.194 105.896 243.257 106.76 243.256C109.383 243.256 111.814 242.711 114.026 242.215C115.726 241.833 117.332 241.473 118.653 241.473C122.43 241.473 124.555 237.74 124.644 237.581C124.898 237.125 124.891 236.568 124.626 236.118Z" fill="#F7C25A"/>
<ellipse cx="117.537" cy="230.58" rx="1.98897" ry="0.994486" transform="rotate(20 117.537 230.58)" fill="#4B6A69"/>
</svg>
